<svg aria-hidden="true" style="position: absolute; width: 0; height: 0; overflow: hidden;" version="1.1" xmlns="http://www.w3.org/2000/svg" xmlns:xlink="http://www.w3.org/1999/xlink"><defs><symbol id="icon-location" viewBox="0 0 32 32"><path d="M16.002 17.746c3.309 0 6-2.692 6-6s-2.691-6-6-6c-3.309 0-6 2.691-6 6s2.691 6 6 6zM16.002 6.746c2.758 0 5 2.242 5 5s-2.242 5-5 5c-2.758 0-5-2.242-5-5s2.242-5 5-5zM16 0c-6.618 0-12 5.316-12 12.001 0 7 6.001 14.161 10.376 19.194 0.016 0.020 0.718 0.805 1.586 0.805 0.002 0 0.073 0 0.077 0 0.867 0 1.57-0.785 1.586-0.805 4.377-5.033 10.377-12.193 10.377-19.194 0-6.685-5.383-12.001-12.002-12.001zM16.117 29.883c-0.021 0.020-0.082 0.064-0.135 0.098-0.010-0.027-0.084-0.086-0.129-0.133-3.665-4.217-9.853-11.334-9.853-17.847 0-5.514 4.487-10.001 10-10.001 5.516 0 10.002 4.487 10.002 10.002 0 6.512-6.188 13.629-9.885 17.881z"/></symbol><symbol id="icon-heart" viewBox="0 0 37 32"><path d="M27 0c-2.476 0-4.856 0.921-6.704 2.595-0.702 0.635-1.303 1.357-1.796 2.154-0.493-0.797-1.094-1.519-1.796-2.155-1.848-1.673-4.228-2.594-6.704-2.594-5.514 0-10 4.486-10 10 0 3.722 1.158 6.66 3.871 9.825 3.942 4.6 13.919 11.62 14.342 11.917 0.086 0.061 0.187 0.091 0.287 0.091s0.201-0.030 0.287-0.091c0.423-0.297 10.4-7.317 14.343-11.917 2.712-3.165 3.87-6.103 3.87-9.825 0-5.514-4.486-10-10-10zM32.371 19.175c-3.495 4.076-12.18 10.341-13.871 11.545-1.691-1.204-10.376-7.469-13.87-11.545-2.545-2.969-3.63-5.713-3.63-9.175 0-4.963 4.038-9 9-9 2.227 0 4.37 0.829 6.032 2.335 0.838 0.76 1.518 1.656 2.020 2.664 0.17 0.34 0.726 0.34 0.896 0 0.502-1.008 1.182-1.904 2.020-2.663 1.662-1.507 3.805-2.336 6.032-2.336 4.962 0 9 4.037 9 9 0 3.462-1.085 6.206-3.629 9.175z"/></symbol><symbol id="icon-profile-male" viewBox="0 0 36 32"><path d="M0.5 31.983c0.268 0.067 0.542-0.088 0.612-0.354 1.030-3.843 5.216-4.839 7.718-5.435 0.627-0.149 1.122-0.267 1.444-0.406 2.85-1.237 3.779-3.227 4.057-4.679 0.034-0.175-0.029-0.355-0.165-0.473-1.484-1.281-2.736-3.204-3.526-5.416-0.022-0.063-0.057-0.121-0.103-0.171-1.045-1.136-1.645-2.337-1.645-3.294 0-0.559 0.211-0.934 0.686-1.217 0.145-0.087 0.236-0.24 0.243-0.408 0.221-5.094 3.849-9.104 8.299-9.13 0.005 0 0.102 0.007 0.107 0.007 4.472 0.062 8.077 4.158 8.206 9.324 0.004 0.143 0.068 0.277 0.178 0.369 0.313 0.265 0.459 0.601 0.459 1.057 0 0.801-0.427 1.786-1.201 2.772-0.037 0.047-0.065 0.101-0.084 0.158-0.8 2.536-2.236 4.775-3.938 6.145-0.144 0.116-0.212 0.302-0.178 0.483 0.278 1.451 1.207 3.44 4.057 4.679 0.337 0.146 0.86 0.26 1.523 0.403 2.477 0.536 6.622 1.435 7.639 5.232 0.060 0.223 0.262 0.37 0.482 0.37 0.043 0 0.086-0.006 0.13-0.017 0.267-0.072 0.425-0.346 0.354-0.613-1.175-4.387-5.871-5.404-8.393-5.95-0.585-0.127-1.090-0.236-1.336-0.344-1.86-0.808-3.006-2.039-3.411-3.665 1.727-1.483 3.172-3.771 3.998-6.337 0.877-1.14 1.359-2.314 1.359-3.317 0-0.669-0.216-1.227-0.644-1.663-0.238-5.604-4.237-10.017-9.2-10.088l-0.149-0.002c-4.873 0.026-8.889 4.323-9.24 9.83-0.626 0.46-0.944 1.105-0.944 1.924 0 1.183 0.669 2.598 1.84 3.896 0.809 2.223 2.063 4.176 3.556 5.543-0.403 1.632-1.55 2.867-3.414 3.676-0.241 0.105-0.721 0.22-1.277 0.352-2.541 0.604-7.269 1.729-8.453 6.147-0.071 0.267 0.087 0.54 0.354 0.612z"/></symbol><symbol id="icon-wallet" viewBox="0 0 38 32"><path d="M32.509 7.5c0.276 0 0.5-0.224 0.5-0.5v-1.665c0-0.903-0.735-1.638-1.638-1.638h-2.687l-0.613-1.809c-0.086-0.255-0.36-0.397-0.619-0.318l-14.553 4.424c-0.264 0.081-0.413 0.36-0.333 0.624 0.066 0.216 0.264 0.354 0.479 0.354 0.048 0 0.097-0.007 0.146-0.021l14.089-4.284 1.343 3.965c0.089 0.262 0.375 0.404 0.634 0.313 0.262-0.088 0.402-0.373 0.313-0.634l-0.547-1.615h2.349c0.352 0 0.638 0.286 0.638 0.638v1.666c-0.001 0.276 0.223 0.5 0.499 0.5zM36.5 15c-0.276 0-0.5 0.224-0.5 0.5s0.224 0.5 0.5 0.5c0.351 0 0.5 0.149 0.5 0.5v6c0 0.351-0.149 0.5-0.5 0.5h-8c-0.351 0-0.5-0.149-0.5-0.5v-5c0-0.351 0.149-0.5 0.5-0.5h6c0.276 0 0.5-0.224 0.5-0.5v-6c0-0.911-0.589-1.5-1.5-1.5h-30.5c-1.233 0-2-0.767-2-2s0.767-2 2-2h5.076l-3.026 0.998c-0.262 0.086-0.405 0.369-0.319 0.631 0.069 0.21 0.265 0.343 0.475 0.343 0.052 0 0.104-0.008 0.157-0.025l18.119-5.973c0.262-0.087 0.405-0.369 0.318-0.632-0.086-0.262-0.369-0.405-0.632-0.318l-12.1 3.99c-0.023-0.004-0.044-0.014-0.068-0.014h-8c-1.794 0-3 1.206-3 3v22c0 1.794 1.206 3 3 3h30.5c0.911 0 1.5-0.589 1.5-1.5v-5c0-0.276-0.224-0.5-0.5-0.5s-0.5 0.224-0.5 0.5v5c0 0.351-0.149 0.5-0.5 0.5h-30.5c-1.233 0-2-0.767-2-2v-19.688c0.513 0.433 1.192 0.688 2 0.688h30.5c0.351 0 0.5 0.149 0.5 0.5v5.5h-5.5c-0.911 0-1.5 0.589-1.5 1.5v5c0 0.911 0.589 1.5 1.5 1.5h8c0.911 0 1.5-0.589 1.5-1.5v-6c0-0.911-0.589-1.5-1.5-1.5zM31 20c0 0.552 0.448 1 1 1s1-0.448 1-1c0-0.552-0.448-1-1-1s-1 0.448-1 1z"/></symbol><symbol id="icon-expand" viewBox="0 0 32 32"><path d="M32 30.5v-29c0-0.827-0.673-1.5-1.5-1.5h-29c-0.827 0-1.5 0.673-1.5 1.5v9c0 0.276 0.224 0.5 0.5 0.5s0.5-0.224 0.5-0.5v-9c0-0.276 0.225-0.5 0.5-0.5h29c0.275 0 0.5 0.224 0.5 0.5v29c0 0.276-0.225 0.5-0.5 0.5h-9c-0.276 0-0.5 0.224-0.5 0.5s0.224 0.5 0.5 0.5h9c0.827 0 1.5-0.673 1.5-1.5zM1.5 13c-0.827 0-1.5 0.673-1.5 1.5v16c0 0.827 0.673 1.5 1.5 1.5h16c0.827 0 1.5-0.673 1.5-1.5v-16.793l7-7v6.793c0 0.276 0.224 0.5 0.5 0.5s0.5-0.224 0.5-0.5v-8c0-0.276-0.224-0.5-0.5-0.5h-8c-0.276 0-0.5 0.224-0.5 0.5s0.224 0.5 0.5 0.5h6.792l-7 7h-16.792zM18 30.5c0 0.276-0.225 0.5-0.5 0.5h-16c-0.275 0-0.5-0.224-0.5-0.5v-16c0-0.276 0.225-0.5 0.5-0.5h16.5v16.5z"/></symbol><symbol id="icon-bar-graph" viewBox="0 0 20 20"><path d="M17 1h-2c-0.552 0-1 0.447-1 1v16.992h4v-16.992c0-0.553-0.447-1-1-1zM11 7h-2c-0.552 0-1 0.447-1 1v10.992h4v-10.992c0-0.553-0.447-1-1-1zM5 13h-2c-0.552 0-1 0.447-1 1v4.992h4v-4.992c0-0.553-0.447-1-1-1z"/></symbol><symbol id="icon-home" viewBox="0 0 20 20"><path d="M18.672 11h-1.672v6c0 0.445-0.194 1-1 1h-4v-6h-4v6h-4c-0.806 0-1-0.555-1-1v-6h-1.672c-0.598 0-0.47-0.324-0.060-0.748l8.024-8.032c0.195-0.202 0.451-0.302 0.708-0.312 0.257 0.010 0.513 0.109 0.708 0.312l8.023 8.031c0.411 0.425 0.539 0.749-0.059 0.749z"/></symbol><symbol id="icon-key" viewBox="0 0 20 20"><path d="M17.691 4.725c-0.503-2.977-3.22-4.967-6.069-4.441s-5.256 2.816-4.753 5.795c0.107 0.641 0.408 1.644 0.763 2.365l-5.175 7.723c-0.191 0.285-0.299 0.799-0.242 1.141l0.333 1.971c0.058 0.342 0.372 0.572 0.7 0.514l1.516-0.281c0.328-0.059 0.744-0.348 0.924-0.639l2.047-3.311 0.018-0.022 1.386-0.256 2.39-3.879c0.785 0.139 1.912 0.092 2.578-0.031 2.848-0.526 4.087-3.67 3.584-6.649zM15.166 6.252c-0.784 1.17-1.584 0.346-2.703-0.475-1.119-0.818-2.135-1.322-1.352-2.492s2.326-1.455 3.447-0.635c1.12 0.819 1.391 2.432 0.608 3.602z"/></symbol><symbol id="icon-location-pin" viewBox="0 0 20 20"><path d="M10 2.009c-2.762 0-5 2.229-5 4.99 0 4.774 5 11 5 11s5-6.227 5-11c0-2.76-2.238-4.99-5-4.99zM10 9.76c-1.492 0-2.7-1.209-2.7-2.7s1.208-2.7 2.7-2.7c1.49 0 2.699 1.209 2.699 2.7s-1.209 2.7-2.699 2.7z"/></symbol><symbol id="icon-network" viewBox="0 0 20 20"><path d="M5.274 6.915c0.2 0 0.394 0.029 0.576 0.086 0.69-0.773 1.455-1.477 2.283-2.1-0.035-0.146-0.054-0.299-0.054-0.455 0-0.217 0.036-0.426 0.102-0.621-0.929-0.664-1.937-1.223-3.011-1.654-1.005 0.621-1.882 1.431-2.582 2.381 0.519 0.92 1.136 1.777 1.838 2.557 0.256-0.124 0.543-0.194 0.848-0.194zM3.316 8.872c0-0.275 0.058-0.537 0.159-0.773-0.628-0.692-1.197-1.436-1.695-2.229-0.625 1.242-0.98 2.645-0.98 4.131 0 1.719 0.474 3.328 1.295 4.705 0.294-1.654 0.851-3.219 1.62-4.652-0.25-0.328-0.399-0.739-0.399-1.182zM10.036 2.489c0.517 0 0.985 0.201 1.336 0.529 1.021-0.439 2.096-0.777 3.215-0.992-1.351-0.779-2.917-1.226-4.587-1.226-1.139 0-2.229 0.209-3.236 0.588 0.799 0.395 1.561 0.855 2.277 1.375 0.292-0.174 0.631-0.274 0.995-0.274zM12.962 11.708c0.122-0.254 0.295-0.479 0.509-0.656-0.578-1.777-1.493-3.404-2.672-4.803-0.234 0.1-0.492 0.154-0.764 0.154-0.425 0-0.816-0.137-1.137-0.365-0.71 0.539-1.367 1.143-1.964 1.803 0.188 0.299 0.297 0.652 0.297 1.031 0 0.203-0.031 0.4-0.090 0.586 1.717 1.146 3.694 1.934 5.821 2.25zM15.501 14.351c0.026 0.371 0.041 0.744 0.041 1.121 0 0.664-0.042 1.318-0.122 1.961 1.56-1.139 2.748-2.758 3.347-4.639-0.71 0.172-1.438 0.295-2.181 0.365-0.173 0.537-0.572 0.969-1.085 1.192zM12.504 13.024c-2.272-0.377-4.377-1.244-6.21-2.484-0.298 0.182-0.647 0.289-1.021 0.289-0.139 0-0.272-0.014-0.402-0.041-0.877 1.662-1.438 3.517-1.599 5.484 0.876 0.94 1.944 1.697 3.145 2.205 1.492-2.293 3.576-4.189 6.087-5.453zM16.176 3.181c-1.475 0.143-2.883 0.514-4.193 1.068 0.006 0.066 0.010 0.131 0.010 0.197 0 0.309-0.074 0.6-0.201 0.859 1.311 1.539 2.327 3.33 2.969 5.291 0.797 0.016 1.477 0.502 1.77 1.195 0.886-0.090 1.748-0.26 2.578-0.504 0.060-0.42 0.092-0.85 0.092-1.287-0.001-2.704-1.167-5.136-3.025-6.819zM13.489 14.069c-2.344 1.098-4.304 2.789-5.723 4.856 0.715 0.179 1.463 0.275 2.234 0.275 1.387 0 2.702-0.309 3.882-0.859 0.19-0.928 0.29-1.887 0.29-2.869 0-0.355-0.016-0.707-0.043-1.055-0.236-0.076-0.453-0.193-0.64-0.348z"/></symbol><symbol id="icon-trophy" viewBox="0 0 20 20"><path d="M11.18 14.356c0-1.451 1.1-2.254 2.894-3.442 2.194-1.456 4.926-3.265 4.926-7.56 0-0.387-0.317-0.699-0.709-0.699h-3.43c-0.484-0.896-1.929-1.855-4.861-1.855-2.934 0-4.377 0.959-4.862 1.855h-3.431c-0.391 0-0.707 0.313-0.707 0.699 0 4.295 2.73 6.104 4.926 7.559 1.794 1.188 2.894 1.991 2.894 3.442v1.311c-1.884 0.209-3.269 0.906-3.269 1.736 0 0.994 1.992 1.799 4.449 1.799s4.449-0.805 4.449-1.799c0-0.83-1.385-1.527-3.269-1.736v-1.31zM13.957 9.3c0.566-1.199 1.016-2.826 1.088-5.246h2.51c-0.24 2.701-1.862 4.064-3.598 5.246zM10 2.026c2.732-0.002 3.799 1.115 3.798 1.529 0 0.418-1.066 1.533-3.798 1.535-2.732-0.001-3.799-1.116-3.799-1.534-0.001-0.414 1.067-1.532 3.799-1.53zM2.445 4.054h2.509c0.073 2.42 0.521 4.047 1.089 5.246-1.736-1.182-3.359-2.545-3.598-5.246z"/></symbol><symbol id="icon-heart1" viewBox="0 0 32 32"><path d="M23.6 2c-3.363 0-6.258 2.736-7.599 5.594-1.342-2.858-4.237-5.594-7.601-5.594-4.637 0-8.4 3.764-8.4 8.401 0 9.433 9.516 11.906 16.001 21.232 6.13-9.268 15.999-12.1 15.999-21.232 0-4.637-3.763-8.401-8.4-8.401z"/></symbol></defs></svg>